<svg xmlns="http://www.w3.org/2000/svg" viewBox="0 0 32 32">
  <path fill="currentColor" d="M19.11 17.4c-.28-.14-1.64-.8-1.9-.9-.25-.1-.43-.14-.61.14-.18.28-.7.9-.86 1.08-.16.18-.32.2-.6.07-.28-.14-1.18-.43-2.25-1.37-.83-.74-1.39-1.65-1.55-1.93-.16-.28-.02-.43.12-.57.12-.12.28-.32.42-.48.14-.16.18-.28.28-.47.1-.18.05-.35-.02-.49-.07-.14-.61-1.47-.84-2.01-.22-.53-.44-.46-.61-.47h-.52c-.18 0-.47.07-.71.35-.25.28-.93.9-.93 2.2s.95 2.55 1.08 2.73c.14.18 1.86 2.86 4.52 4.01.63.27 1.12.43 1.5.55.63.2 1.2.17 1.65.1.5-.07 1.64-.66 1.87-1.29.23-.63.23-1.17.16-1.29-.07-.12-.25-.18-.53-.32z"/>
  <path fill="currentColor" d="M26.67 5.33A13.23 13.23 0 0016.02 1.1C8.86 1.1 3.03 6.93 3.03 14.1c0 2.3.6 4.55 1.75 6.54L3 30.9l10.5-1.74c1.9 1.04 4.03 1.58 6.2 1.58h.01c7.17 0 13-5.83 13-13.01 0-3.47-1.35-6.73-3.99-9.4zm-6.97 22.2h-.01c-1.95 0-3.87-.53-5.54-1.54l-.4-.24-6.22 1.03 1.04-6.06-.26-.41a10.9 10.9 0 01-1.68-5.87c0-6.01 4.89-10.9 10.9-10.9 2.91 0 5.64 1.13 7.69 3.2a10.82 10.82 0 013.19 7.7c0 6.02-4.89 10.9-10.9 10.9z"/>
</svg>
